<svg width="16" height="17" viewBox="0 0 16 17" fill="none" xmlns="http://www.w3.org/2000/svg">
<path fill-rule="evenodd" clip-rule="evenodd" d="M11.2206 7.51432C10.9022 5.64558 9.1513 4.58906 7.29412 4.67976C4.58822 4.93963 2.9109 7.30013 3.05904 9.85912C3.35886 12.8882 5.92416 14.986 8.96232 15.1418C12.1055 15.2144 14.6761 13.3188 15.8639 10.5579C15.8701 10.5433 16.0344 10.1288 15.9935 10.32C15.7278 11.5465 14.8488 12.7531 13.9383 13.594C11.1321 16.0949 6.81591 16.154 4.1359 13.42C1.92119 11.0105 1.8591 7.35236 4.38364 5.12513C6.44919 3.43729 9.47747 3.41198 11.3202 5.43314C12.8152 7.19262 12.7146 9.8834 10.6877 11.2068C9.11272 12.1814 6.78907 11.7827 6.16202 9.91207C5.81144 8.78066 6.42814 7.32547 7.78331 7.30403C8.14177 7.31096 8.54721 7.47522 8.75327 7.76204C8.12339 6.21496 4.76591 7.19705 5.1662 9.89114C5.51021 11.8233 7.40227 12.9155 9.40966 12.8216C12.3344 12.553 14.1473 10.113 13.9869 7.46747C13.6629 4.33614 10.8903 2.16708 7.60639 2.00662C4.2091 1.93152 1.43074 3.89097 0.14705 6.74527C0.140503 6.76039 -0.0371399 7.18884 0.00705459 6.99118C0.294356 5.72295 1.24428 4.47606 2.22849 3.60671C5.26147 1.02159 9.92618 0.959971 12.8229 3.78647C15.2166 6.27719 15.2836 10.059 12.5551 12.3616C10.3225 14.1065 7.04939 14.1325 5.05805 12.0429C3.44213 10.2242 3.55075 7.44232 5.74165 6.07433C7.44391 5.06693 9.95528 5.47913 10.6331 7.41304C11.2304 9.18483 9.41033 10.743 8.08497 9.86777C9.11635 10.928 11.4909 9.88683 11.2202 7.51471L11.2206 7.51432Z" fill="#EFEFEF" fill-opacity="0.6"/>
</svg>
