<svg width="120" height="15" viewBox="0 0 120 15" fill="none" xmlns="http://www.w3.org/2000/svg">
<path d="M0.5 0.0771484V13.8026H3.25736V9.29283H5.715C7.05372 9.29283 8.19263 8.84185 9.11175 7.9595C10.0309 7.07715 10.4904 5.97911 10.4904 4.68499C10.4904 3.39087 10.0309 2.29284 9.11175 1.41048C8.19263 0.528129 7.05372 0.0771484 5.715 0.0771484H0.5ZM3.25736 6.76342V2.60656H5.715C6.89387 2.60656 7.75305 3.48891 7.75305 4.68499C7.75305 5.86146 6.89387 6.76342 5.715 6.76342H3.25736Z" fill="#FF6E00"/>
<path d="M28.9296 13.8026L25.8326 8.62617C27.451 7.90068 28.53 6.33205 28.53 4.62617C28.53 3.37127 28.0704 2.29284 27.1713 1.41048C26.2722 0.528129 25.1732 0.0771484 23.8745 0.0771484H18.2798V13.8026H21.0372V9.03793H23.1352L25.9525 13.8026H28.9296ZM23.8745 2.60656C24.9135 2.60656 25.7727 3.50852 25.7727 4.62617C25.7727 5.74382 24.9135 6.66538 23.8745 6.66538H21.0372V2.60656H23.8745Z" fill="#FF6E00"/>
<path d="M39.3048 8.13597H44.5998V5.58695H39.3048V2.66538H45.0993V0.0771484H36.5475V13.8026H45.1992V11.2144H39.3048V8.13597Z" fill="#FF6E00"/>
<path d="M63.9867 0.0771484L59.9905 6.56735L55.9743 0.0771484H53.1371V13.8026H55.8944V4.92029L59.8306 11.2732H60.1503L64.0866 4.90068V13.8026H66.8239V0.0771484H63.9867Z" fill="#FF6E00"/>
<path d="M75.4243 13.8026H78.1816V0.0771484H75.4243V13.8026Z" fill="#FF6E00"/>
<path d="M91.98 14.0771C93.5585 14.0771 94.8372 13.6458 95.8363 12.783C96.8353 11.9203 97.3348 10.7634 97.3348 9.31244V0.0771484H94.5775V9.09676C94.5775 10.5281 93.7583 11.4301 91.98 11.4301C90.2017 11.4301 89.3825 10.5281 89.3825 9.09676V0.0771484H86.6451V9.31244C86.6451 10.7634 87.1446 11.9203 88.1436 12.783C89.1427 13.6458 90.4215 14.0771 91.98 14.0771Z" fill="#FF6E00"/>
<path d="M116.663 0.0771484L112.667 6.56735L108.65 0.0771484H105.813V13.8026H108.57V4.92029L112.507 11.2732H112.826L116.763 4.90068V13.8026H119.5V0.0771484H116.663Z" fill="#FF6E00"/>
</svg>
