<svg width="36" height="40" viewBox="0 0 36 40" fill="none" xmlns="http://www.w3.org/2000/svg">
<path d="M7.8559 40C9.37826 40 11.5332 39.8378 12.6544 39.6402V39.6351C13.7705 39.4375 14.5985 37.9678 14.4956 36.3664C14.3928 34.765 14.1459 31.4912 13.9453 29.0941C13.7396 26.6971 13.6367 22.653 13.719 20.114L13.791 17.7068C13.8733 15.1729 12.5258 12.7657 10.8029 12.3654C9.07996 11.965 6.83757 11.4735 5.82438 11.2758C4.80605 11.0782 3.89058 12.0613 3.79286 13.46C3.68486 14.8638 3.52028 17.646 3.41742 19.6427C3.31455 21.6394 3.14997 24.8271 3.05226 26.7275C2.95454 28.6279 2.78482 32.2311 2.6871 34.7295C2.58938 37.233 3.08311 39.4425 3.798 39.6402C4.50775 39.8378 6.33355 40 7.8559 40Z" fill="#FF6E00"/>
<path d="M28.1505 40C29.6729 40 31.5038 39.8378 32.2136 39.6402L32.2239 39.6453C32.9336 39.4476 33.4325 37.2381 33.3245 34.7346C33.2267 32.2362 33.057 28.633 32.9593 26.7325C32.8565 24.8372 32.6867 21.6496 32.5942 19.6478C32.4861 17.646 32.3216 14.8689 32.2187 13.4651C32.1158 12.0664 31.2055 11.0832 30.1872 11.2809C29.1689 11.4735 26.9265 11.9701 25.2035 12.3705C23.4755 12.7708 22.1331 15.1729 22.2154 17.7119L22.2874 20.1191C22.3697 22.658 22.2668 26.7021 22.0611 29.0992C21.8554 31.4963 21.6085 34.77 21.5005 36.3715C21.4028 37.9729 22.2411 39.4425 23.352 39.6402C24.4732 39.8378 26.6282 40 28.1505 40Z" fill="#FF6E00"/>
<path d="M30.5472 8.1794C32.9799 7.8804 35.1451 7.06449 35.3457 6.36513C35.5514 5.67085 35.5514 3.9478 35.3457 2.54909C35.1451 1.14532 33.9828 0 32.7639 0C31.545 0 28.4437 0.121627 25.8721 0.27366L22.6834 0.456101C20.1119 0.608135 15.8997 0.603067 13.3281 0.440898L10.8646 0.288864C8.28792 0.131763 5.0272 0 3.60257 0C2.17793 0 0.851016 1.14532 0.650435 2.54909C0.449855 3.9478 0.449855 5.66578 0.650435 6.36513C0.851016 7.06449 3.00597 7.8804 5.44379 8.1794C7.88162 8.4784 11.7029 8.89396 13.9402 9.0916C16.1723 9.29431 19.829 9.29431 22.0611 9.0916C24.2932 8.88889 28.1094 8.4784 30.5472 8.1794Z" fill="#FF6E00"/>
</svg>
