<svg width="1320" height="210" viewBox="0 0 1320 210" fill="none" xmlns="http://www.w3.org/2000/svg">
<path d="M52.0035 172.694L25.7541 95.3647C24.1032 91.0824 22.5349 88.3647 21.0491 87.2118C19.7283 86.0588 17.9123 85.4824 15.6011 85.4824H14.8582V172.694H0V0.24707H14.8582V78.3176H21.0491L53.2417 0.24707H61.909L28.9734 79.8C33.9261 82.1059 38.0534 88.0353 41.3552 97.5882L67.6046 172.694H52.0035Z" fill="#EFEFEF"/>
<path d="M173.732 0H184.133L214.344 172.694H199.239L190.324 121.8H165.312L158.131 172.694H150.207L173.732 0ZM174.475 51.6353L166.303 114.635H189.086L178.19 51.6353L177.694 41.7529H174.723L174.475 51.6353Z" fill="#EFEFEF"/>
<path d="M381.648 172.694H366.789V44.4706L368.028 34.5882H365.056L364.808 44.4706L344.007 172.694H333.854L310.081 44.4706L309.338 34.5882H306.366L307.604 44.4706V172.694H299.68V0H317.262L339.797 124.271L340.292 134.153H343.264L343.759 124.271L363.818 0H381.648V172.694Z" fill="#EFEFEF"/>
<path d="M494.072 0.24707V83.0118H526.513V0.24707H541.371V172.694H526.513V90.1765H494.072V172.694H479.214V0.24707H494.072Z" fill="#EFEFEF"/>
<path d="M684.206 0V7.16472H653.004V80.7882H679.006V88.2H653.004V165.282H684.206V172.694H638.146V0H684.206Z" fill="#EFEFEF"/>
<path d="M835.218 48.6706C835.218 59.2118 833.319 67.2824 829.522 72.8824C825.89 78.3176 820.938 81.4471 814.664 82.2706L811.693 82.5177V85.2353L814.664 85.4824C821.433 86.3059 827.046 90.0941 831.503 96.8471C835.961 103.435 838.19 112.082 838.19 122.788V134.647C838.19 139.918 837.447 144.859 835.961 149.471C834.475 154.082 832.329 158.118 829.522 161.576C826.881 165.035 823.579 167.753 819.617 169.729C815.655 171.706 811.28 172.694 806.492 172.694H776.281V0.24707H804.511C813.591 0.24707 820.938 3.37648 826.551 9.6353C832.329 15.8941 835.218 24.3765 835.218 35.0824V48.6706ZM802.53 80.2941C809.629 80.2941 814.334 77.9059 816.645 73.1294C819.122 68.353 820.36 60.6941 820.36 50.1529V36.5647C820.36 26.6824 819.039 19.353 816.398 14.5765C813.921 9.8 809.464 7.41177 803.025 7.41177H791.139V80.2941H802.53ZM823.331 121.059C823.331 98.6588 816.398 87.4588 802.53 87.4588H791.139V165.529H805.006C811.775 165.529 816.48 162.647 819.122 156.882C821.928 151.118 823.331 143.212 823.331 133.165V121.059Z" fill="#EFEFEF"/>
<path d="M977.162 0V7.16472H945.96V80.7882H971.961V88.2H945.96V165.282H977.162V172.694H931.101V0H977.162Z" fill="#EFEFEF"/>
<path d="M1058.82 210V168.247H1065.01C1067.49 164.953 1069.64 160.753 1071.45 155.647C1073.43 150.376 1075 144.035 1076.16 136.624C1077.48 129.047 1078.39 120.235 1078.88 110.188C1079.54 99.9765 1079.87 88.2 1079.87 74.8588V0H1132.12V168.247H1143.52V210H1128.66V175.659H1066.5V210H1058.82ZM1117.02 168.247V7.16472H1087.8V77.5765C1087.8 87.6235 1087.55 97.4235 1087.05 106.976C1086.56 116.365 1085.73 125.094 1084.58 133.165C1083.42 141.071 1081.85 148.071 1079.87 154.165C1078.06 160.094 1075.75 164.788 1072.94 168.247H1117.02Z" fill="#EFEFEF"/>
<path d="M1259.82 75.6C1269.73 75.6 1277.49 79.2235 1283.1 86.4706C1288.88 93.7177 1291.77 103.271 1291.77 115.129V133.412C1291.77 139.012 1290.94 144.2 1289.29 148.976C1287.64 153.753 1285.41 157.953 1282.61 161.576C1279.8 165.035 1276.42 167.753 1272.45 169.729C1268.66 171.706 1264.53 172.694 1260.07 172.694L1229.86 172.447V0H1244.72V75.6H1259.82ZM1320 0V172.694H1305.14V0H1320ZM1276.91 115.129C1276.91 93.5529 1270.72 82.7647 1258.34 82.7647H1244.72V165.282H1258.34C1263.95 165.282 1268.41 162.647 1271.71 157.376C1275.18 152.106 1276.91 144.035 1276.91 133.165V115.129Z" fill="#EFEFEF"/>
</svg>
