<svg width="24" height="24" viewBox="0 0 24 24" fill="none" xmlns="http://www.w3.org/2000/svg">
<path fill-rule="evenodd" clip-rule="evenodd" d="M11.3048 4.53375C11.5785 4.78133 11.8102 5.03122 12.0005 5.25984C12.1907 5.03122 12.4224 4.78133 12.6962 4.53375C13.5567 3.75544 14.8327 3 16.5436 3C19.3851 3 21.7209 5.36906 21.7505 8.28047C21.7767 10.8905 20.8266 13.2961 18.8442 15.6398C17.214 17.571 15.0885 18.9659 13.2447 20.176C12.9631 20.3608 12.688 20.5413 12.4223 20.7188L12.0005 21L11.5786 20.7188C11.3126 20.5411 11.0373 20.3604 10.7554 20.1754C8.91177 18.9655 6.78668 17.5709 5.15671 15.6412C3.17624 13.2975 2.22608 10.8905 2.25046 8.28187C2.27999 5.36906 4.61577 3 7.45733 3C9.16824 3 10.4442 3.75544 11.3048 4.53375ZM3.25041 8.29161C3.27482 5.90427 5.18696 4 7.45733 4C9.28931 4 10.5343 5.06146 11.2318 5.89954L12.0005 6.82308L12.7691 5.89954C13.4666 5.06146 14.7116 4 16.5436 4C18.8142 4 20.7263 5.90465 20.7505 8.29061C20.7739 10.6196 19.9369 12.7995 18.0807 14.9941L18.0801 14.9948C16.5513 16.8057 14.56 18.1144 12.7093 19.3306C12.4702 19.4877 12.2335 19.6433 12.0005 19.7982C11.7671 19.6431 11.53 19.4873 11.2907 19.33C9.44023 18.114 7.4492 16.8055 5.92064 14.9959L5.92053 14.9958C4.06615 12.8013 3.22875 10.6197 3.25041 8.29161Z" fill="#EFEFEF" fill-opacity="0.4"/>
</svg>
