<svg width="14" height="14" viewBox="0 0 14 14" fill="none" xmlns="http://www.w3.org/2000/svg">
<path d="M13.9669 10.5667C13.8037 10.3929 13.2278 9.87917 12.169 9.19949C11.1025 8.51386 10.3159 8.08636 10.0903 7.98667C10.0704 7.97785 10.0485 7.97462 10.0269 7.97732C10.0053 7.98001 9.98489 7.98854 9.96779 8.00199C9.60435 8.28542 8.99248 8.80605 8.95966 8.83417C8.74779 9.01574 8.74779 9.01574 8.57435 8.95917C8.26935 8.85917 7.32185 8.35605 6.49623 7.52855C5.6706 6.70105 5.14154 5.73011 5.04154 5.42542C4.98435 5.25167 4.98435 5.25167 5.16654 5.0398C5.19466 5.00699 5.7156 4.39511 5.99904 4.03199C6.01248 4.01489 6.02101 3.99445 6.02371 3.97286C6.02641 3.95128 6.02317 3.92937 6.01435 3.90949C5.91466 3.68355 5.48716 2.8973 4.80154 1.83074C4.12091 0.772298 3.60779 0.196361 3.43404 0.0332358C3.41809 0.0181898 3.39839 0.00772304 3.37699 0.00293827C3.3556 -0.0018465 3.33331 -0.000772042 3.31248 0.00604832C2.70512 0.214762 2.11912 0.481079 1.56248 0.801361C1.02511 1.11374 0.516364 1.47295 0.042164 1.8748C0.0256108 1.88887 0.0132005 1.90718 0.00626385 1.92777C-0.000672766 1.94836 -0.00187396 1.97045 0.00278902 1.99167C0.0681015 2.29605 0.380289 3.56667 1.34904 5.32667C2.33748 7.12292 3.02248 8.04323 4.47404 9.4898C5.9256 10.9364 6.87498 11.6626 8.6731 12.651C10.4331 13.6198 11.7044 13.9323 12.0081 13.997C12.0294 14.0016 12.0515 14.0004 12.0721 13.9935C12.0928 13.9865 12.1111 13.9741 12.1253 13.9576C12.5271 13.4834 12.8862 12.9747 13.1984 12.4373C13.5186 11.8806 13.7849 11.2946 13.9937 10.6873C14.0004 10.6666 14.0014 10.6445 13.9967 10.6233C13.992 10.6021 13.9817 10.5826 13.9669 10.5667Z" fill="#FF6E00"/>
</svg>
