<svg width="16" height="16" viewBox="0 0 16 16" fill="none" xmlns="http://www.w3.org/2000/svg">
<path d="M13.41 9.5L5.24312 9.5L5.41938 10.5L13.5 10.5V11.5L4.58063 11.5L3.08063 3L1 3L1 2L3.91938 2L4.18406 3.5L14.61 3.5L13.41 9.5Z" fill="#EFEFEF"/>
<path d="M5.5 14C6.05229 14 6.5 13.5523 6.5 13C6.5 12.4477 6.05229 12 5.5 12C4.94772 12 4.5 12.4477 4.5 13C4.5 13.5523 4.94772 14 5.5 14Z" fill="#EFEFEF"/>
<path d="M12.5 14C13.0523 14 13.5 13.5523 13.5 13C13.5 12.4477 13.0523 12 12.5 12C11.9477 12 11.5 12.4477 11.5 13C11.5 13.5523 11.9477 14 12.5 14Z" fill="#EFEFEF"/>
</svg>
