<svg width="16" height="16" viewBox="0 0 16 16" fill="none" xmlns="http://www.w3.org/2000/svg">
<path d="M8.3733 11.5741C7.80663 12.1407 7.20663 12.6741 6.63997 13.2407C6.43997 13.4407 6.20663 13.5407 5.93997 13.5407C5.73996 13.5407 5.63997 13.4407 5.5733 13.2741C5.13997 11.9407 4.70663 10.5741 4.2733 9.24074C4.23996 9.10741 4.1733 9.04074 4.03997 9.00741C3.00663 8.67407 1.9733 8.34074 0.973298 8.00741C0.806632 7.94074 0.673298 7.90741 0.506632 7.80741C0.306632 7.67407 0.273298 7.44074 0.439965 7.27407C0.606632 7.10741 0.806632 6.97407 1.03996 6.90741C2.30663 6.40741 3.53996 5.94074 4.80663 5.44074C8.00663 4.20741 11.2066 2.97407 14.4066 1.74074C15.0066 1.50741 15.4733 1.84074 15.4066 2.50741C15.3733 2.94074 15.2733 3.34074 15.1733 3.74074C14.4733 7.00741 13.7733 10.2741 13.1066 13.5407C12.94 14.3074 12.4066 14.5074 11.7733 14.0407C10.7066 13.2407 9.63997 12.4741 8.5733 11.6741C8.4733 11.6407 8.43997 11.6074 8.3733 11.5741ZM5.9733 12.5741H6.00663C6.00663 12.5407 6.00663 12.5074 6.03997 12.4741C6.10663 11.7407 6.1733 11.0074 6.23997 10.2407C6.23997 10.0741 6.30663 9.97407 6.43997 9.84074C7.43997 8.97407 8.40663 8.07407 9.3733 7.17407C10.4733 6.20741 11.54 5.20741 12.64 4.24074C12.6733 4.20741 12.7066 4.07407 12.7733 4.00741C12.6733 4.00741 12.5733 3.94074 12.4733 3.97407C12.34 4.00741 12.2066 4.07407 12.1066 4.14074C9.70663 5.67407 7.30663 7.17407 4.90663 8.67407C4.7733 8.77407 4.73996 8.84074 4.80663 8.97407C4.9733 9.47407 5.13997 10.0074 5.30663 10.5074C5.50663 11.2074 5.73997 11.8741 5.9733 12.5741Z" fill="#FF6E00"/>
</svg>
