<svg width="17" height="17" viewBox="0 0 17 17" fill="none" xmlns="http://www.w3.org/2000/svg">
<path d="M12.5048 4.80297H10.5609C10.7104 4.51217 10.7977 4.18336 10.7977 3.8293C10.7977 2.62807 9.83817 1.66699 8.66681 1.66699C7.49544 1.66699 6.53592 2.64067 6.53592 3.8293C6.53592 4.18336 6.62319 4.51208 6.7727 4.80297H4.8288L3.3335 13.667L14.0002 13.667L12.5048 4.80297ZM8.66681 2.86832C9.19017 2.86832 9.61382 3.29822 9.61382 3.8293C9.61382 4.36038 9.19017 4.79028 8.66681 4.79028C8.14344 4.79028 7.71979 4.36038 7.71979 3.8293C7.71979 3.29822 8.14344 2.86832 8.66681 2.86832Z" fill="#EFEFEF" fill-opacity="0.6"/>
</svg>
